<svg width="1000" height="1000" viewBox="0 0 100 100" fill="none" xmlns="http://www.w3.org/2000/svg" role="img" aria-labelledby="title">
  <title id="title">BARAX symbol light</title>
  <polygon points="30,5 70,5 90,25 90,75 70,95 30,95 10,75 10,25" stroke="#0A1628" stroke-width="2" vector-effect="non-scaling-stroke"/>
  <polygon points="35,18 65,18 78,33 78,67 65,82 35,82 22,67 22,33" stroke="#0A1628" stroke-width="1" fill="rgba(10,22,40,0.03)" vector-effect="non-scaling-stroke"/>
  <line x1="50" y1="32" x2="50" y2="68" stroke="#0A1628" stroke-width="1.2" opacity="0.35" vector-effect="non-scaling-stroke"/>
  <line x1="32" y1="50" x2="68" y2="50" stroke="#0A1628" stroke-width="1.2" opacity="0.35" vector-effect="non-scaling-stroke"/>
  <circle cx="50" cy="50" r="5" fill="#0098B8"/>
  <circle cx="50" cy="50" r="10" stroke="#0A1628" stroke-width="0.7" opacity="0.15" vector-effect="non-scaling-stroke"/>
  <line x1="36" y1="34" x2="40" y2="34" stroke="#0A1628" stroke-width="0.8" opacity="0.25" vector-effect="non-scaling-stroke"/>
  <line x1="36" y1="34" x2="36" y2="38" stroke="#0A1628" stroke-width="0.8" opacity="0.25" vector-effect="non-scaling-stroke"/>
  <line x1="64" y1="34" x2="60" y2="34" stroke="#0A1628" stroke-width="0.8" opacity="0.25" vector-effect="non-scaling-stroke"/>
  <line x1="64" y1="34" x2="64" y2="38" stroke="#0A1628" stroke-width="0.8" opacity="0.25" vector-effect="non-scaling-stroke"/>
  <line x1="36" y1="66" x2="40" y2="66" stroke="#0A1628" stroke-width="0.8" opacity="0.25" vector-effect="non-scaling-stroke"/>
  <line x1="36" y1="66" x2="36" y2="62" stroke="#0A1628" stroke-width="0.8" opacity="0.25" vector-effect="non-scaling-stroke"/>
  <line x1="64" y1="66" x2="60" y2="66" stroke="#0A1628" stroke-width="0.8" opacity="0.25" vector-effect="non-scaling-stroke"/>
  <line x1="64" y1="66" x2="64" y2="62" stroke="#0A1628" stroke-width="0.8" opacity="0.25" vector-effect="non-scaling-stroke"/>
</svg>
