<svg width="3200" height="800" viewBox="0 0 320 80" fill="none" xmlns="http://www.w3.org/2000/svg" role="img" aria-labelledby="title">
  <title id="title">BARAX primary logo light</title>
  <style>
    @import url('https://fonts.googleapis.com/css2?family=Inter:wght@500&amp;family=Rajdhani:wght@700&amp;display=swap');
    .wordmark { font-family: 'Rajdhani', sans-serif; }
    .descriptor { font-family: 'Inter', sans-serif; }
  </style>
  <g transform="translate(0 0)">
    <polygon points="18,2 30,2 36,12 36,28 30,38 18,38 12,28 12,12" stroke="#0A1628" stroke-width="1.5" vector-effect="non-scaling-stroke"/>
    <polygon points="20,8 28,8 32,15 32,25 28,32 20,32 16,25 16,15" stroke="#0A1628" stroke-width="0.7" fill="rgba(10,22,40,0.03)" vector-effect="non-scaling-stroke"/>
    <line x1="24" y1="14" x2="24" y2="26" stroke="#0A1628" stroke-width="1" opacity="0.35" vector-effect="non-scaling-stroke"/>
    <line x1="18" y1="20" x2="30" y2="20" stroke="#0A1628" stroke-width="1" opacity="0.35" vector-effect="non-scaling-stroke"/>
    <circle cx="24" cy="20" r="2.5" fill="#0098B8"/>
    <circle cx="24" cy="20" r="5" stroke="#0A1628" stroke-width="0.5" opacity="0.15" vector-effect="non-scaling-stroke"/>
    <line x1="19" y1="14" x2="21" y2="14" stroke="#0A1628" stroke-width="0.6" opacity="0.25" vector-effect="non-scaling-stroke"/>
    <line x1="19" y1="14" x2="19" y2="16" stroke="#0A1628" stroke-width="0.6" opacity="0.25" vector-effect="non-scaling-stroke"/>
    <line x1="29" y1="14" x2="27" y2="14" stroke="#0A1628" stroke-width="0.6" opacity="0.25" vector-effect="non-scaling-stroke"/>
    <line x1="29" y1="14" x2="29" y2="16" stroke="#0A1628" stroke-width="0.6" opacity="0.25" vector-effect="non-scaling-stroke"/>
    <line x1="19" y1="26" x2="21" y2="26" stroke="#0A1628" stroke-width="0.6" opacity="0.25" vector-effect="non-scaling-stroke"/>
    <line x1="19" y1="26" x2="19" y2="24" stroke="#0A1628" stroke-width="0.6" opacity="0.25" vector-effect="non-scaling-stroke"/>
    <line x1="29" y1="26" x2="27" y2="26" stroke="#0A1628" stroke-width="0.6" opacity="0.25" vector-effect="non-scaling-stroke"/>
    <line x1="29" y1="26" x2="29" y2="24" stroke="#0A1628" stroke-width="0.6" opacity="0.25" vector-effect="non-scaling-stroke"/>
  </g>
  <text x="52" y="26" class="wordmark" font-size="28" font-weight="700" fill="#0A1628" letter-spacing="6">BARAX</text>
  <line x1="52" y1="32" x2="192" y2="32" stroke="#0098B8" stroke-width="0.35" opacity="0.3" vector-effect="non-scaling-stroke"/>
  <text x="52" y="44" class="descriptor" font-size="8.5" font-weight="500" fill="#0098B8" letter-spacing="4">DEFENSE &amp; TECHNOLOGY</text>
</svg>
